<?xml version="1.0" standalone="no"?>
<!DOCTYPE svg PUBLIC "-//W3C//DTD SVG 20010904//EN"
 "http://www.w3.org/TR/2001/REC-SVG-20010904/DTD/svg10.dtd">
<svg version="1.0" xmlns="http://www.w3.org/2000/svg"
 width="256.000000pt" height="256.000000pt" viewBox="0 0 256.000000 256.000000"
 preserveAspectRatio="xMidYMid meet">

<g transform="translate(0.000000,256.000000) scale(0.100000,-0.100000)"
fill="#000000" stroke="none">
<path d="M1050 2313 c-56 -22 -112 -105 -112 -169 0 -80 46 -152 117 -185 49
-23 73 -23 124 -3 32 12 45 26 66 67 29 59 31 97 10 158 -33 92 -135 158 -205
132z m-5 -23 c-3 -5 -1 -10 4 -10 6 0 11 5 11 10 0 6 5 10 11 10 5 0 8 -4 5
-9 -6 -10 24 -25 32 -16 3 3 -1 5 -9 6 -8 0 -4 4 9 10 18 7 28 5 40 -8 12 -12
13 -18 4 -21 -14 -4 -7 -22 9 -22 6 0 7 5 4 10 -7 12 15 13 31 2 6 -4 17 -24
25 -44 7 -21 17 -38 21 -38 12 0 10 -48 -3 -55 -16 -10 -23 3 -11 18 7 8 9 17
5 20 -3 4 -11 -3 -18 -16 -6 -12 -17 -21 -23 -19 -15 3 -16 -14 -2 -23 6 -3
10 -1 10 4 0 6 5 11 11 11 5 0 8 -4 5 -9 -8 -12 3 -41 15 -41 5 0 9 7 9 16 0
8 -4 12 -10 9 -5 -3 -10 -2 -10 3 0 5 8 12 18 14 15 4 17 0 14 -23 -2 -16 -8
-29 -13 -29 -5 0 -9 -6 -9 -14 0 -16 -46 -67 -54 -59 -3 3 -12 0 -21 -7 -12
-10 -15 -10 -15 1 0 8 -6 6 -16 -7 -8 -10 -13 -13 -9 -6 4 8 -2 12 -19 12 -14
0 -26 4 -26 9 0 5 -8 7 -18 4 -20 -5 -49 23 -56 53 -11 50 -19 66 -27 52 -10
-14 -9 -16 -12 57 -2 29 2 40 12 40 8 0 16 6 19 14 3 9 0 11 -8 6 -7 -4 -5 3
4 17 9 14 14 28 11 31 -3 4 -2 5 1 2 4 -2 15 7 26 20 19 24 35 35 23 15z"/>
<path d="M1120 2271 c0 -25 6 -27 13 -6 4 8 2 17 -3 20 -6 4 -10 -3 -10 -14z"/>
<path d="M1050 2259 c0 -5 5 -7 10 -4 6 3 10 8 10 11 0 2 -4 4 -10 4 -5 0 -10
-5 -10 -11z"/>
<path d="M1008 2218 c6 -23 38 -42 47 -28 3 5 -3 10 -15 10 -16 0 -20 4 -16
18 4 12 1 19 -7 19 -9 0 -12 -7 -9 -19z"/>
<path d="M1130 2231 c0 -5 5 -13 10 -16 6 -3 10 -2 10 4 0 5 -4 13 -10 16 -5
3 -10 2 -10 -4z"/>
<path d="M1164 2219 c-3 -6 -2 -15 3 -20 5 -5 9 -1 10 11 2 22 -2 25 -13 9z"/>
<path d="M1090 2200 c0 -5 5 -10 10 -10 6 0 10 5 10 10 0 6 -4 10 -10 10 -5 0
-10 -4 -10 -10z"/>
<path d="M1195 2190 c3 -5 11 -10 16 -10 6 0 7 5 4 10 -3 6 -11 10 -16 10 -6
0 -7 -4 -4 -10z"/>
<path d="M995 2180 c-3 -5 -1 -10 4 -10 6 0 11 5 11 10 0 6 -2 10 -4 10 -3 0
-8 -4 -11 -10z"/>
<path d="M1130 2186 c0 -2 7 -6 15 -10 8 -3 15 -1 15 4 0 6 -7 10 -15 10 -8 0
-15 -2 -15 -4z"/>
<path d="M1021 2164 c0 -11 3 -14 6 -6 3 7 2 16 -1 19 -3 4 -6 -2 -5 -13z"/>
<path d="M1180 2161 c0 -5 5 -13 10 -16 6 -3 10 -2 10 4 0 5 -4 13 -10 16 -5
3 -10 2 -10 -4z"/>
<path d="M975 2140 c3 -5 8 -10 11 -10 2 0 4 5 4 10 0 6 -5 10 -11 10 -5 0 -7
-4 -4 -10z"/>
<path d="M1155 2140 c3 -5 8 -10 11 -10 2 0 4 5 4 10 0 6 -5 10 -11 10 -5 0
-7 -4 -4 -10z"/>
<path d="M1025 2120 c-3 -6 1 -7 9 -4 18 7 21 14 7 14 -6 0 -13 -4 -16 -10z"/>
<path d="M1065 2120 c3 -5 8 -10 11 -10 2 0 4 5 4 10 0 6 -5 10 -11 10 -5 0
-7 -4 -4 -10z"/>
<path d="M1001 2094 c0 -11 3 -14 6 -6 3 7 2 16 -1 19 -3 4 -6 -2 -5 -13z"/>
<path d="M1100 2100 c0 -5 5 -10 11 -10 5 0 7 5 4 10 -3 6 -8 10 -11 10 -2 0
-4 -4 -4 -10z"/>
<path d="M1040 2079 c0 -5 5 -7 10 -4 6 3 10 8 10 11 0 2 -4 4 -10 4 -5 0 -10
-5 -10 -11z"/>
<path d="M1193 2065 c0 -8 4 -15 9 -15 4 0 8 4 8 9 0 6 -4 12 -8 15 -5 3 -9
-1 -9 -9z"/>
<path d="M1090 2030 c0 -5 5 -10 10 -10 6 0 10 5 10 10 0 6 -4 10 -10 10 -5 0
-10 -4 -10 -10z"/>
<path d="M1207 2033 c-4 -3 -7 -11 -7 -17 0 -6 5 -5 12 2 6 6 9 14 7 17 -3 3
-9 2 -12 -2z"/>
<path d="M1050 2020 c0 -5 5 -10 11 -10 5 0 7 5 4 10 -3 6 -8 10 -11 10 -2 0
-4 -4 -4 -10z"/>
<path d="M1177 2010 c3 -11 7 -20 9 -20 2 0 4 9 4 20 0 11 -4 20 -9 20 -5 0
-7 -9 -4 -20z"/>
<path d="M1020 2010 c0 -5 5 -10 11 -10 5 0 7 5 4 10 -3 6 -8 10 -11 10 -2 0
-4 -4 -4 -10z"/>
<path d="M1087 1989 c7 -7 15 -10 18 -7 3 3 -2 9 -12 12 -14 6 -15 5 -6 -5z"/>
<path d="M1148 1993 c7 -3 16 -2 19 1 4 3 -2 6 -13 5 -11 0 -14 -3 -6 -6z"/>
<path d="M1985 2078 c-278 -93 -474 -182 -683 -309 l-113 -69 -60 49 c-63 51
-170 91 -241 91 -67 -1 -182 -35 -172 -51 3 -5 -1 -6 -9 -3 -20 7 -67 -35
-113 -102 l-39 -56 0 -107 c0 -103 1 -108 38 -179 l38 -72 -105 -110 c-197
-207 -316 -367 -390 -529 l-47 -104 19 -51 c26 -70 86 -111 174 -121 35 -4
127 -15 205 -26 79 -11 240 -23 359 -28 248 -9 371 4 574 59 63 17 147 40 185
50 196 52 284 101 406 227 79 80 222 271 260 345 49 97 91 207 108 287 38 175
35 526 -5 688 -13 50 -23 67 -52 90 -72 55 -225 69 -337 31z m86 -10 c0 -10 2
-10 6 0 5 13 90 16 156 5 28 -4 37 -10 32 -21 -4 -11 -2 -12 7 -4 35 29 104
-88 92 -156 -9 -54 -24 -102 -33 -102 -5 0 -6 -11 -4 -24 7 -34 -54 -146 -78
-146 -17 0 -24 -11 -20 -33 4 -23 -311 -358 -439 -468 -198 -169 -523 -381
-790 -514 -288 -144 -450 -199 -680 -229 -51 -7 -136 14 -132 32 1 7 -1 11 -5
11 -28 -5 -41 6 -55 46 -11 28 -13 45 -6 45 7 0 7 4 0 13 -15 17 35 130 55
123 7 -3 13 -1 13 3 0 5 -5 11 -10 13 -21 7 54 140 99 176 9 7 16 16 16 21 0
4 24 40 54 79 43 56 57 69 68 60 11 -8 12 -7 7 6 -7 18 92 140 107 130 5 -3 8
-1 7 4 -2 5 19 33 46 62 l49 54 26 -31 c29 -35 110 -86 154 -97 15 -3 26 -10
23 -14 -7 -12 123 -14 182 -2 31 7 76 22 100 35 24 13 51 22 60 19 12 -4 13
-3 5 3 -10 7 -4 19 22 48 66 71 100 184 83 276 -5 28 -27 84 -48 125 -28 53
-35 76 -27 82 71 54 409 232 527 277 134 51 212 75 223 69 7 -4 8 -3 4 2 -5 5
7 14 30 21 51 15 73 16 74 1z m313 -350 c-3 -9 -1 -34 5 -55 5 -21 6 -58 1
-83 l-7 -45 -4 60 c-1 33 -3 89 -4 125 -1 36 -3 70 -5 75 -1 6 -1 26 0 45 2
23 5 12 11 -35 4 -38 5 -78 3 -87z m-1474 92 c18 -12 2 -12 -25 0 -13 6 -15 9
-5 9 8 0 22 -4 30 -9z m-140 -31 c0 -5 -8 -9 -17 -8 -11 0 -13 3 -5 6 6 2 9
10 6 15 -4 7 -2 8 4 4 7 -4 12 -11 12 -17z m80 17 c0 -11 -19 -15 -25 -6 -3 5
1 10 9 10 9 0 16 -2 16 -4z m50 -11 c20 -24 7 -34 -25 -20 -30 13 -30 13 -5
15 23 1 23 2 5 10 -15 7 -16 9 -4 9 9 1 22 -6 29 -14z m-85 -5 c3 -5 -3 -10
-15 -10 -12 0 -18 5 -15 10 3 6 10 10 15 10 5 0 12 -4 15 -10z m176 -26 c9
-12 6 -14 -21 -14 -29 0 -31 2 -19 16 12 15 11 16 -9 10 -16 -5 -22 -3 -22 8
0 12 5 13 29 5 17 -6 35 -17 42 -25z m84 16 c3 -5 1 -10 -4 -10 -6 0 -11 5
-11 10 0 6 2 10 4 10 3 0 8 -4 11 -10z m-24 -21 c16 -11 27 -25 24 -30 -4 -5
-1 -9 4 -9 6 0 11 -5 11 -10 0 -7 -8 -6 -22 1 -21 11 -22 11 -9 -4 8 -10 9
-17 3 -17 -21 0 -25 23 -7 37 17 12 17 13 2 13 -9 0 -17 4 -17 10 0 5 -6 7
-14 4 -7 -3 -16 2 -19 10 -9 22 9 20 44 -5z m1318 -164 l1 -50 -31 59 -31 58
17 47 c9 25 19 53 23 61 6 16 19 -88 21 -175z m-1634 166 c-6 -5 -16 -11 -24
-13 -8 -2 -27 -16 -42 -33 -16 -16 -29 -25 -29 -19 0 7 7 14 15 18 8 3 15 10
15 16 0 6 -5 8 -12 4 -7 -4 -8 -3 -4 5 4 6 11 9 16 6 5 -3 11 -1 15 5 4 6 11
8 16 5 5 -4 9 -1 9 4 0 6 8 11 17 11 11 0 13 -3 8 -9z m59 -5 c-12 -10 -21
-11 -25 -4 -4 6 -10 2 -13 -10 -5 -14 -12 -19 -23 -15 -13 5 -11 9 8 24 13 10
35 19 48 19 24 0 24 -1 5 -14z m20 -51 c-13 -20 -19 -23 -25 -13 -15 23 -10
38 14 39 18 1 18 2 4 6 -18 5 -18 5 0 18 16 12 18 11 21 -5 2 -10 -4 -31 -14
-45z m61 59 c13 -5 14 -8 3 -15 -20 -13 -38 -11 -38 6 0 16 9 19 35 9z m250
-42 c-3 -3 -16 5 -28 17 l-22 23 28 -17 c15 -10 25 -20 22 -23z m-225 4 c-6
-8 -19 -12 -27 -9 -11 4 -14 2 -9 -5 4 -7 2 -12 -3 -12 -6 0 -11 4 -11 8 0 14
24 32 43 32 16 0 17 -3 7 -14z m50 -29 c0 -7 -39 0 -49 9 -2 2 2 10 9 19 11
14 14 13 26 -2 7 -10 14 -22 14 -26z m60 35 c0 -5 -9 -17 -20 -27 -20 -18 -21
-18 -35 1 -22 29 -18 34 20 34 19 0 35 -4 35 -8z m-276 -27 c-5 -12 -9 -13
-20 -4 -12 9 -13 9 -9 -4 6 -13 -11 -35 -19 -26 -10 11 16 49 33 49 14 0 19
-5 15 -15z m46 -17 c0 -5 -9 -8 -20 -8 -23 0 -26 10 -8 28 9 9 14 9 20 -1 4
-6 8 -15 8 -19z m254 16 c9 -23 7 -74 -2 -74 -5 0 -19 12 -33 26 l-24 27 27
-5 c15 -3 25 -1 22 3 -3 5 -12 9 -21 9 -13 0 -13 3 -3 15 16 19 26 19 34 -1z
m-194 -4 c0 -5 -5 -10 -11 -10 -5 0 -7 5 -4 10 3 6 8 10 11 10 2 0 4 -4 4 -10z
m286 -7 c-4 12 -2 17 6 15 22 -8 18 -24 -10 -40 -26 -15 -31 -16 -48 -3 -17
13 -18 14 -1 15 9 0 17 -6 17 -12 0 -9 3 -9 9 1 5 8 7 21 4 30 -4 11 0 10 11
-4 16 -18 17 -18 12 -2z m-455 -15 c-5 -13 -17 -25 -27 -27 -17 -3 -16 0 5 23
30 32 33 32 22 4z m-58 -6 c-10 -10 -20 -17 -22 -16 -6 5 20 34 30 34 5 0 1
-8 -8 -18z m268 1 c1 -17 2 -17 6 0 2 9 13 17 23 17 29 0 32 -16 5 -30 -20
-11 -27 -11 -40 0 -17 14 -20 30 -5 30 6 0 11 -8 11 -17z m-93 -56 c2 -26 -1
-47 -5 -47 -4 1 -20 11 -35 23 l-28 23 31 18 c17 10 28 20 25 24 -3 3 -14 -2
-24 -11 -24 -22 -32 -21 -33 1 -1 15 -2 16 -6 0 -2 -10 -10 -15 -19 -11 -11 4
-11 -1 3 -25 10 -17 20 -27 23 -22 3 4 16 -1 29 -11 26 -21 26 -21 -6 -38 -31
-16 -36 -14 -30 12 6 21 5 21 -8 3 -12 -16 -17 -17 -30 -6 -15 12 -14 15 7 32
13 9 18 18 13 18 -6 0 -16 -5 -23 -12 -16 -16 -47 13 -39 36 10 26 24 18 21
-11 -3 -21 -2 -23 4 -8 20 55 55 78 102 65 22 -5 25 -13 28 -53z m66 48 c4
-12 0 -14 -22 -10 l-27 5 28 -11 c35 -14 34 -23 -3 -49 l-30 -21 0 38 c0 39
14 63 36 63 6 0 14 -7 18 -15z m328 -3 c-4 -11 -1 -13 8 -7 8 5 11 4 6 -3 -8
-14 -36 -4 -36 12 0 7 6 13 14 13 8 0 12 -6 8 -15z m-224 -48 c-3 -2 -19 2
-36 8 l-32 12 32 17 c33 17 33 17 36 -8 2 -14 2 -27 0 -29z m52 21 l23 -25
-31 0 c-27 0 -32 4 -32 25 0 14 4 25 8 25 5 0 19 -11 32 -25z m62 10 c0 -5 -5
-11 -11 -13 -6 -2 -11 4 -11 13 0 9 5 15 11 13 6 -2 11 -8 11 -13z m-442 -66
c0 -5 -6 -6 -13 -3 -8 3 -14 19 -15 36 l-1 31 15 -28 c8 -15 14 -31 14 -36z
m513 46 c-3 -10 -1 -15 7 -13 6 2 18 -7 27 -19 13 -20 13 -21 -6 -16 -12 3
-21 10 -21 15 0 5 -10 6 -22 3 -17 -6 -20 -4 -15 10 4 9 7 21 7 26 0 5 7 9 15
9 9 0 12 -6 8 -15z m57 -16 c0 -25 -4 -24 -23 5 -15 23 -15 24 3 19 11 -3 20
-14 20 -24z m1109 -59 c6 -47 14 -100 17 -118 l5 -32 -53 21 c-29 12 -69 28
-88 35 -19 6 -34 16 -32 21 5 13 134 165 137 161 2 -2 8 -41 14 -88z m-1729
43 c-11 -17 -11 -17 -6 0 3 10 6 24 7 30 0 9 2 9 5 0 3 -7 0 -20 -6 -30z
m1792 -58 c3 4 2 -8 -2 -27 -26 -100 -35 -102 -44 -10 -4 37 -9 83 -12 102 -5
33 -3 32 24 -18 15 -29 31 -50 34 -47z m-1484 43 l11 -43 -6 44 c-5 41 -4 43
18 36 39 -12 41 -21 13 -54 -27 -33 -30 -33 -93 -9 l-24 9 28 29 c16 17 32 30
35 30 4 0 12 -19 18 -42z m212 32 c0 -5 -4 -10 -9 -10 -6 0 -13 5 -16 10 -3 6
1 10 9 10 9 0 16 -4 16 -10z m-93 -21 c-9 -5 -22 -7 -27 -4 -6 3 -10 0 -10 -8
0 -8 -12 -22 -26 -32 -18 -11 -24 -13 -19 -4 20 35 51 59 74 59 23 -1 24 -2 8
-11z m109 -27 c-16 -16 -31 -10 -46 18 -9 17 -7 17 26 7 30 -9 33 -12 20 -25z
m-55 -30 c-42 -4 -45 -1 -29 33 l12 27 25 -28 25 -29 -33 -3z m169 37 c0 -6
-4 -7 -10 -4 -5 3 -10 11 -10 16 0 6 5 7 10 4 6 -3 10 -11 10 -16z m-212 -11
c-9 -13 -25 -24 -38 -24 -21 -1 -20 0 6 22 37 30 51 30 32 2z m-423 -25 c4
-14 2 -23 -4 -23 -6 0 -11 9 -11 21 0 11 -4 17 -10 14 -6 -3 -7 1 -4 10 8 19
19 10 29 -22z m37 15 c8 -13 17 -38 20 -55 4 -31 4 -32 -14 -16 -23 20 -24 6
-1 -19 15 -17 15 -18 -7 -18 -20 0 -22 4 -17 33 3 17 8 40 12 50 6 13 3 16 -9
11 -12 -4 -16 0 -16 15 0 27 14 27 32 -1z m570 -2 c4 -6 5 -19 2 -28 -3 -10
-1 -18 4 -18 12 0 24 29 16 41 -3 5 -1 9 5 9 14 0 23 -18 12 -25 -6 -3 -8 -12
-4 -20 5 -16 -13 -20 -41 -9 -13 5 -13 10 -4 27 10 20 10 21 -5 8 -10 -7 -17
-9 -17 -3 0 6 -3 18 -6 26 -5 13 -2 15 12 9 11 -3 22 -11 26 -17z m-48 -2 c11
-28 6 -39 -9 -20 -8 11 -15 23 -15 28 0 14 18 9 24 -8z m-471 -12 c11 -12 13
-22 7 -32 -5 -8 -10 -22 -9 -30 0 -8 6 -2 12 14 l13 30 17 -24 c23 -34 22 -40
-12 -40 -35 0 -46 13 -54 63 -6 41 1 46 26 19z m82 -28 c-15 -35 -16 -36 -30
-18 -8 10 -15 22 -15 26 0 8 53 38 58 33 2 -1 -4 -20 -13 -41z m91 30 c23 -6
29 -34 9 -51 -4 -5 -5 -2 0 6 5 9 3 12 -6 9 -8 -3 -13 -10 -12 -16 2 -6 -4 -9
-12 -6 -7 3 -17 19 -20 36 -4 16 -9 27 -12 24 -3 -3 -1 -19 5 -35 10 -28 9
-31 -14 -37 -34 -9 -37 -3 -20 37 18 42 26 51 44 44 8 -3 25 -8 38 -11z m271
-8 c-4 -9 2 -17 14 -21 23 -8 24 -15 5 -41 -14 -18 -15 -18 -25 8 -12 31 -11
68 2 68 5 0 7 -7 4 -14z m-137 -12 c0 -3 -5 -14 -11 -26 l-11 -20 -19 21 c-26
27 -24 31 11 31 17 0 30 -3 30 -6z m117 -31 c10 -26 12 -38 4 -41 -6 -2 -3
-11 9 -20 21 -18 41 -100 21 -88 -7 4 -8 1 -5 -8 9 -22 -9 -20 -31 4 -18 19
-17 20 3 20 13 0 22 6 22 15 0 8 -5 15 -11 15 -6 0 -8 9 -4 23 3 13 -2 8 -13
-12 l-19 -34 -12 33 c-13 40 -14 53 -2 45 5 -3 12 -1 16 5 3 5 -1 10 -11 10
-15 0 -15 2 0 25 26 39 19 42 -14 5 -16 -18 -30 -39 -30 -46 0 -8 -9 -18 -19
-23 -27 -15 -34 10 -20 63 11 38 12 40 22 19 5 -13 14 -23 19 -23 12 0 10 24
-4 38 -9 9 -4 12 26 12 33 0 39 -4 53 -37z m-510 -23 c-1 -22 -5 -40 -9 -40
-4 0 -6 18 -5 40 1 22 5 40 9 40 4 0 6 -18 5 -40z m335 -20 c-27 -17 -27 -16
-31 9 -4 26 -4 26 -10 -4 -5 -23 -12 -31 -34 -33 -19 -2 -27 1 -27 12 0 19 21
21 38 4 9 -9 12 -9 12 0 0 6 -7 15 -17 20 -14 8 -13 11 8 23 13 7 27 12 32 11
4 -1 7 3 7 10 0 6 11 1 25 -12 l25 -23 -28 -17z m278 24 c0 -8 5 -14 10 -14 6
0 10 8 10 17 0 9 2 14 5 11 11 -11 -7 -58 -22 -58 -8 0 -11 5 -8 10 3 6 -1 17
-9 26 -20 20 -21 35 -1 28 8 -4 15 -12 15 -20z m55 -28 c3 -20 2 -36 -3 -36
-4 0 -8 18 -9 41 -1 49 6 46 12 -5z m-85 14 c0 -21 -15 -27 -25 -10 -7 12 2
30 16 30 5 0 9 -9 9 -20z m-370 -5 c-7 -9 -19 -14 -26 -11 -8 3 -11 0 -7 -10
3 -7 0 -14 -6 -14 -20 0 -11 30 12 40 33 13 41 12 27 -5z m1419 -15 c44 -17
82 -37 85 -45 3 -8 -20 -69 -50 -136 -30 -66 -53 -124 -50 -126 3 -3 8 3 12
13 4 10 18 46 33 78 23 55 26 58 33 35 6 -18 6 -15 3 10 -3 19 -2 31 2 27 4
-4 13 8 19 26 9 27 11 14 7 -77 -4 -108 -5 -110 -36 -137 -17 -15 -32 -26 -33
-25 -2 2 6 32 17 67 11 35 18 68 16 73 -2 6 -13 -25 -26 -69 l-23 -79 -14 28
c-9 16 -20 25 -26 21 -7 -4 -8 -3 -4 5 5 7 -8 38 -28 72 -20 33 -36 64 -36 69
0 4 40 32 90 61 49 29 87 55 85 57 -2 2 -43 -19 -90 -48 -48 -28 -89 -50 -91
-48 -5 5 17 178 23 178 2 0 39 -14 82 -30z m149 -40 l-1 -35 -6 35 -7 35 -6
-30 c-4 -16 -6 -61 -4 -100 1 -38 0 -62 -2 -52 -2 9 -8 17 -13 17 -6 0 -7 20
-4 48 4 26 8 58 9 72 1 14 6 38 11 55 7 26 9 27 16 10 4 -11 7 -36 7 -55z
m-1629 31 c8 -14 7 -22 -4 -31 -12 -10 -13 -7 -9 17 3 19 1 23 -5 14 -6 -10
-13 -11 -30 -2 -29 16 -26 21 9 21 19 0 33 -7 39 -19z m222 12 c0 -5 2 -16 4
-25 4 -21 1 -22 -25 -8 -13 7 -21 7 -25 0 -4 -6 7 -13 25 -16 l31 -7 -23 -24
-22 -24 -14 26 c-15 30 -7 69 14 61 7 -3 13 -2 13 2 -2 15 1 22 11 22 6 0 10
-3 11 -7z m1149 -69 c-5 -38 -10 -75 -10 -81 0 -7 -10 -13 -22 -14 -19 0 -20
-2 -5 -7 15 -6 12 -14 -24 -57 -23 -28 -43 -52 -45 -54 -2 -3 -23 13 -46 35
-40 37 -37 25 6 -23 23 -27 27 -24 -99 -52 -49 -10 -82 -20 -72 -20 10 -1 49
6 88 15 38 9 74 14 80 12 6 -2 -41 -52 -105 -111 l-115 -108 5 83 c3 46 10 92
16 103 5 11 43 48 84 82 61 51 83 63 131 73 32 6 63 13 68 15 21 7 -32 4 -67
-4 -21 -5 -38 -7 -38 -4 0 9 172 194 176 190 3 -2 0 -35 -6 -73z m-1461 35
c15 -42 14 -45 -9 -46 -11 -1 -20 3 -20 8 0 6 4 8 9 5 5 -3 8 5 7 18 0 13 -5
24 -10 23 -5 -1 -11 4 -13 11 -3 6 2 12 10 12 8 0 20 -14 26 -31z m406 -17 c6
-22 5 -23 -17 -17 -37 12 -43 23 -23 45 20 22 25 18 40 -28z m110 17 c-5 -14
-2 -17 9 -13 9 3 16 9 16 13 0 4 7 8 14 8 11 0 13 -5 5 -19 -6 -10 -15 -15
-21 -12 -7 5 -9 2 -5 -8 3 -10 -4 -25 -18 -38 -24 -22 -24 -22 -18 -1 3 11 13
21 22 21 10 0 12 3 5 8 -12 9 -44 54 -44 63 0 4 9 5 20 2 15 -4 19 -11 15 -24z
m-469 -29 c2 0 0 9 -6 20 -9 16 -8 18 5 14 19 -8 19 -24 1 -50 -18 -24 -23
-19 -31 31 l-6 40 16 -27 c9 -16 18 -28 21 -28z m-92 24 c5 -14 4 -15 -9 -4
-17 14 -19 20 -6 20 5 0 12 -7 15 -16z m181 5 c-5 -7 4 -8 28 -4 49 10 74 -1
86 -37 10 -29 9 -30 -12 -24 -12 3 -27 6 -34 6 -7 0 -19 12 -28 28 -13 23 -15
24 -9 4 6 -23 6 -23 -26 -7 -26 13 -29 19 -19 31 13 16 23 19 14 3z m452 -41
c-3 -7 -5 -2 -5 12 0 14 2 19 5 13 2 -7 2 -19 0 -25z m-187 -13 c7 -9 6 -22
-3 -43 -12 -30 -14 -31 -30 -15 -16 16 -17 16 -17 0 0 -9 -8 -17 -17 -17 -14
0 -12 4 7 25 13 14 29 25 36 25 7 0 16 5 20 12 5 8 2 9 -9 5 -10 -4 -24 -10
-32 -13 -10 -4 -15 0 -15 13 0 11 3 22 6 25 8 8 42 -2 54 -17z m159 -27 c-9
-17 -14 -19 -17 -8 -3 7 0 16 7 18 6 2 9 8 5 13 -3 5 -2 15 3 22 13 21 16 -20
2 -45z m-445 26 c5 -12 2 -15 -10 -10 -8 3 -18 6 -20 6 -3 0 -2 5 1 10 9 15
22 12 29 -6z m30 8 c2 -4 1 -14 -3 -21 -6 -9 -10 -7 -14 8 -5 20 7 29 17 13z
m186 -12 c0 -13 -7 -20 -20 -20 -23 0 -26 10 -8 28 18 18 28 15 28 -8z m1387
-12 c-3 -8 -6 -5 -6 6 -1 11 2 17 5 13 3 -3 4 -12 1 -19z m-1720 -4 c2 -6 -3
-11 -10 -11 -8 0 -14 6 -14 14 0 15 19 12 24 -3z m75 -9 c5 -22 3 -23 -16 -14
-19 9 -18 8 3 -10 22 -20 22 -21 3 -21 -25 0 -35 25 -22 51 14 26 27 24 32 -6z
m95 -47 c3 -10 12 -18 19 -18 8 0 14 -4 14 -10 0 -5 -4 -10 -10 -10 -5 0 -10
-7 -10 -15 0 -21 -8 -19 -35 13 l-24 27 22 7 c20 5 19 6 -5 7 -22 1 -26 5 -21
19 6 14 4 15 -9 4 -13 -11 -16 -9 -20 12 l-5 25 40 -22 c21 -12 42 -30 44 -39z
m26 32 c6 -24 -15 -27 -34 -4 -10 13 -10 17 1 24 18 11 26 6 33 -20z m56 14
c3 -3 -4 -14 -16 -25 l-20 -21 -12 32 c-11 32 -10 32 17 25 15 -4 29 -9 31
-11z m213 -20 c-3 -10 -54 -26 -61 -19 -2 3 1 17 8 31 11 24 13 25 34 11 12
-8 21 -18 19 -23z m68 7 c0 -10 -6 -21 -14 -24 -15 -6 -16 9 -3 31 11 17 17
15 17 -7z m-200 0 c0 -18 -21 -23 -37 -9 -15 11 -16 11 -10 -4 5 -13 0 -19
-19 -24 -33 -8 -37 -2 -18 22 17 21 84 33 84 15z m240 -5 c0 -2 -8 -10 -17
-17 -16 -13 -17 -12 -4 4 13 16 21 21 21 13z m-106 -40 c-5 -13 -13 -16 -33
-11 -25 6 -25 6 -6 -9 15 -12 16 -16 5 -16 -10 -1 -9 -4 5 -10 16 -7 13 -8
-13 -7 -26 2 -32 6 -30 22 2 11 18 27 38 37 39 19 43 18 34 -6z m23 4 c-3 -10
0 -21 7 -24 8 -3 8 -5 -1 -5 -16 -1 -24 14 -17 33 9 23 17 20 11 -4z m-426 -3
c22 4 29 2 29 -11 0 -19 -11 -21 -29 -3 -11 10 -13 10 -7 0 12 -22 -10 -14
-30 10 -10 12 -12 17 -5 10 8 -7 26 -9 42 -6z m239 -18 c0 -15 -4 -19 -15 -15
-33 13 -49 16 -27 5 12 -7 22 -15 22 -19 0 -8 -31 -23 -35 -18 -1 2 -7 12 -14
23 -11 19 -12 19 -6 -2 5 -19 2 -23 -14 -23 -39 0 -21 32 29 54 48 21 60 20
60 -5z m63 7 c18 -14 24 -46 8 -46 -5 0 -17 3 -25 6 -15 6 -15 8 1 20 15 11
15 13 3 14 -9 0 -21 -5 -28 -12 -9 -9 -12 -7 -12 10 0 25 25 29 53 8z m-216
-42 c-2 -2 -13 -1 -25 3 -14 3 -22 13 -22 26 0 20 1 20 25 -3 14 -13 24 -25
22 -26z m1348 -15 c19 -33 35 -63 35 -66 0 -6 -126 6 -151 15 -15 6 -11 14 28
60 24 28 46 52 48 52 2 0 20 -27 40 -61z m182 29 c-3 -7 -5 -2 -5 12 0 14 2
19 5 13 2 -7 2 -19 0 -25z m-1522 -30 c5 4 5 2 2 -4 -3 -6 -16 -10 -29 -8 -13
1 -27 3 -33 3 -5 1 -3 5 4 10 9 6 22 6 32 1 9 -5 20 -6 24 -2z m144 -12 c-2
-2 -15 -7 -29 -10 -19 -6 -21 -5 -10 3 8 6 11 11 5 12 -5 0 -1 4 10 8 17 7 35
-3 24 -13z m56 15 c3 -5 0 -11 -7 -14 -17 -5 19 0 57 9 23 5 27 4 19 -5 -25
-27 -114 -24 -114 4 0 16 35 21 45 6z m-170 -32 c-4 -5 -1 -9 6 -9 7 0 9 -3 6
-6 -9 -9 -38 16 -31 27 3 5 10 7 15 3 5 -3 7 -10 4 -15z m52 15 c-3 -3 -12 -4
-19 -1 -8 3 -5 6 6 6 11 1 17 -2 13 -5z m46 -31 c-7 -2 -19 -2 -25 0 -7 3 -2
5 12 5 14 0 19 -2 13 -5z m44 1 c-3 -3 -12 -4 -19 -1 -8 3 -5 6 6 6 11 1 17
-2 13 -5z m1005 -93 l-7 -65 -93 -39 c-52 -21 -96 -37 -98 -34 -2 2 41 48 96
101 60 58 98 102 94 109 -5 8 -4 9 4 2 8 -7 9 -32 4 -74z m134 63 c40 -5 51
-10 50 -23 -1 -14 -103 -181 -110 -181 -1 0 -17 15 -35 34 l-33 34 87 52 c47
29 84 54 82 56 -2 3 -41 -18 -86 -45 l-81 -50 0 32 c0 18 3 49 7 70 6 37 7 38
37 33 17 -3 54 -8 82 -12z m103 -58 c0 -6 -27 -33 -60 -60 -32 -27 -57 -52
-54 -54 3 -3 23 12 45 33 22 22 40 36 40 33 0 -14 -113 -163 -121 -161 -5 2
-9 -3 -9 -11 0 -8 -18 -29 -40 -46 -22 -17 -40 -28 -40 -24 0 16 63 104 71 98
5 -3 9 3 9 14 0 10 9 27 20 37 10 9 18 21 17 25 -1 4 21 42 48 84 44 66 52 74
63 59 6 -9 12 -22 11 -27z m41 -15 c-11 -17 -18 -36 -14 -42 5 -8 3 -9 -6 -4
-10 6 -12 4 -6 -11 4 -10 4 -15 0 -11 -4 4 -13 -1 -20 -11 -12 -15 -13 -14 -8
8 2 14 -2 7 -11 -15 -8 -22 -30 -53 -47 -69 -18 -16 -26 -26 -16 -23 26 9 16
-17 -32 -84 -47 -64 -77 -89 -77 -64 0 8 4 12 9 9 4 -3 5 3 2 13 -4 13 -3 14
3 5 7 -9 18 -1 43 30 54 69 56 77 7 23 -26 -27 -46 -46 -47 -42 0 18 31 66 57
86 15 11 22 21 16 21 -7 0 10 31 38 70 28 38 55 68 59 65 5 -3 11 8 15 25 6
27 43 66 53 55 2 -2 -6 -18 -18 -34z m-520 -15 c0 -24 -3 -64 -6 -90 l-7 -46
-120 0 -120 0 104 76 c57 41 111 82 119 90 23 23 30 17 30 -30z m176 -130
l-46 -65 -56 25 c-31 14 -59 23 -62 20 -2 -3 6 -10 19 -15 13 -5 39 -15 58
-23 l34 -14 -84 -51 c-46 -28 -85 -50 -87 -48 -5 5 27 102 44 137 10 18 29 31
66 44 29 9 75 28 103 40 27 13 51 21 53 19 3 -2 -16 -33 -42 -69z m117 3 c-9
-9 -135 -61 -139 -56 -1 1 19 31 44 66 l46 64 29 -33 c16 -18 25 -36 20 -41z
m-311 -25 c3 -3 -5 -33 -18 -67 -13 -33 -24 -69 -24 -79 0 -21 -17 -22 -109
-4 l-65 12 90 56 c49 30 98 60 109 66 11 6 15 12 10 12 -6 0 -58 -29 -115 -64
l-105 -64 -6 32 -6 31 -2 -37 c0 -23 -6 -38 -13 -38 -7 0 -69 -7 -137 -15 -69
-8 -126 -13 -128 -11 -3 3 253 166 261 166 3 0 7 -15 9 -32 4 -32 4 -32 5 5
l2 37 118 0 c65 0 121 -3 124 -6z m308 1 c0 -3 -21 -37 -46 -76 l-46 -72 -24
41 c-14 23 -26 45 -27 48 -1 4 27 20 63 35 69 29 80 32 80 24z m-130 -107 c16
-22 30 -44 29 -47 0 -3 -25 -25 -55 -49 -55 -43 -55 -44 -48 -15 4 15 15 52
26 82 10 30 16 56 14 59 -3 2 -18 -37 -33 -87 l-29 -90 -53 35 c-29 20 -55 34
-57 31 -3 -2 18 -19 46 -37 27 -18 50 -34 50 -36 0 -3 -43 -23 -99 -45 l-24
-10 6 61 c4 34 10 68 15 75 7 14 159 112 174 114 5 1 21 -18 38 -41z m114 -37
c-15 -28 -30 -51 -33 -51 -3 0 -12 10 -20 22 -11 18 -11 22 3 30 9 5 13 14 10
20 -4 6 -3 8 2 5 5 -3 21 3 34 13 14 10 26 17 28 15 2 -2 -8 -26 -24 -54z
m-419 -22 l60 -11 -125 -64 c-69 -34 -121 -63 -117 -63 4 -1 54 22 110 50 161
81 149 80 141 6 -4 -34 -8 -64 -10 -66 -6 -7 -239 0 -248 9 -5 5 12 41 39 84
39 63 51 75 68 71 12 -2 49 -9 82 -16z m-138 -5 c3 -9 -68 -127 -87 -144 -3
-3 -11 -16 -18 -30 -7 -14 -21 -36 -31 -49 -18 -23 -19 -24 -85 -11 -36 7 -69
16 -72 21 -3 5 -10 6 -16 3 -7 -4 -8 -2 -4 4 4 6 13 9 21 6 15 -6 189 36 181
43 -2 2 -41 -5 -86 -17 -98 -25 -117 -22 -64 10 73 44 239 153 249 163 18 18
-32 -12 -175 -103 -77 -50 -142 -90 -143 -90 -2 0 7 39 19 88 19 75 25 87 44
90 69 11 237 30 249 28 8 0 16 -6 18 -12z m506 -35 c-5 -3 -32 -14 -61 -24
-29 -9 -51 -19 -49 -21 2 -2 23 3 47 11 61 22 64 19 33 -25 -32 -46 -37 -47
-78 -20 l-30 19 55 51 c51 47 55 49 72 33 10 -9 15 -20 11 -24z m-818 -31 c-3
-18 -13 -57 -21 -85 l-15 -53 -41 0 c-56 0 -45 -7 22 -14 30 -3 80 -11 110
-18 51 -12 53 -13 25 -19 -23 -5 -16 -7 28 -8 31 0 57 -3 57 -5 0 -2 2 -10 5
-18 4 -10 -8 -13 -52 -11 -55 1 -56 1 -13 -5 38 -6 44 -10 41 -27 -3 -19 -2
-19 17 -2 11 10 53 27 94 37 54 14 61 18 28 14 -40 -5 -31 1 80 54 69 32 126
58 128 57 2 -1 -5 -19 -14 -39 -19 -38 -56 -55 -119 -56 l-30 -1 25 -15 c25
-15 25 -15 1 -8 -16 4 -21 3 -17 -5 4 -6 2 -9 -6 -6 -7 3 -52 -8 -98 -23 -71
-24 -103 -29 -185 -30 -70 0 -93 2 -75 8 18 7 11 8 -25 4 -49 -5 -50 -4 -62
26 l-12 32 87 -4 c48 -3 68 -3 44 -1 -24 2 -40 8 -37 14 4 5 3 9 -2 8 -4 -1
-21 -1 -38 0 l-30 1 25 20 c14 11 21 20 15 20 -5 0 -21 -9 -35 -20 -33 -26
-45 -25 -115 10 l-60 30 63 -4 c82 -5 73 4 -12 13 -44 5 -63 4 -59 -4 3 -5 0
-4 -7 2 -8 7 -12 14 -9 17 9 8 284 145 292 146 5 0 6 -15 2 -32z m855 28 c0
-2 -8 -10 -17 -17 -16 -13 -17 -12 -4 4 13 16 21 21 21 13z m-150 -86 c14 -11
19 -20 12 -20 -7 0 -11 -4 -7 -9 9 -15 -34 -39 -91 -52 -30 -7 -51 -15 -49
-19 2 -4 -8 -5 -23 -3 -19 3 -23 2 -13 -5 11 -8 9 -11 -8 -17 -13 -4 -25 -4
-28 -1 -4 3 2 6 13 6 18 1 18 1 1 11 -9 5 -22 7 -28 3 -6 -3 -1 12 10 34 20
40 22 41 52 30 l32 -11 -37 -19 c-21 -11 -35 -22 -32 -25 3 -3 22 4 42 16 21
13 48 20 63 18 14 -2 19 -2 11 1 -12 4 -11 6 5 13 17 6 17 8 3 8 -22 1 -23 9
-1 35 10 12 2 7 -17 -11 -30 -27 -38 -30 -55 -21 -18 11 -16 14 28 33 63 27
87 28 117 5z m-253 -37 c-9 -2 -14 -9 -11 -15 4 -6 2 -8 -3 -5 -11 7 -168 -30
-226 -52 -41 -16 -41 -15 -7 34 l31 45 117 -1 c64 -1 109 -3 99 -6z m-92 -56
c-38 -18 -85 -39 -103 -46 -22 -9 -29 -17 -21 -21 6 -4 -4 -7 -22 -6 -23 1
-35 7 -37 18 -3 13 13 22 70 38 40 11 93 27 118 34 71 22 70 18 -5 -17z m-607
-14 l77 -38 -93 -3 c-50 -1 -134 -1 -185 0 l-92 3 105 37 c58 20 106 37 108
37 2 1 38 -16 80 -36z m677 -43 c-11 -5 -27 -9 -35 -9 -9 0 -8 4 5 9 11 5 27
9 35 9 9 0 8 -4 -5 -9z m-550 -48 c6 -22 5 -23 -42 -19 -26 3 -39 2 -28 -2 11
-3 -50 -8 -135 -11 l-155 -5 -42 29 c-24 16 -40 32 -37 35 11 11 408 17 420 6
7 -5 15 -20 19 -33z m-425 -2 c28 -25 31 -30 15 -30 -11 0 -31 -3 -45 -5 -22
-5 -23 -4 -5 5 16 8 13 10 -17 7 -21 -2 -38 1 -38 5 0 4 -18 8 -39 8 -71 0
-82 13 -21 26 88 19 111 16 150 -16z m435 -41 c4 -6 5 -13 2 -15 -3 -3 -74 -2
-159 3 l-153 8 125 5 c69 3 137 7 152 8 15 1 30 -3 33 -9z m113 1 c52 0 36 -6
-35 -13 -54 -6 -63 -4 -63 9 0 13 7 15 31 10 17 -3 47 -6 67 -6z"/>
<path d="M2026 1942 c-3 -5 1 -9 9 -9 8 0 12 4 9 9 -3 4 -7 8 -9 8 -2 0 -6 -4
-9 -8z"/>
<path d="M2148 1923 c5 -21 7 -23 10 -9 2 10 0 22 -6 28 -6 6 -7 0 -4 -19z"/>
<path d="M2257 1877 c3 -15 9 -27 14 -27 13 0 11 13 -5 35 -13 18 -14 18 -9
-8z"/>
<path d="M1755 1880 c3 -5 8 -10 11 -10 2 0 4 5 4 10 0 6 -5 10 -11 10 -5 0
-7 -4 -4 -10z"/>
<path d="M1920 1875 c0 -8 4 -15 8 -15 5 0 9 7 9 15 0 8 -4 15 -9 15 -4 0 -8
-7 -8 -15z"/>
<path d="M1635 1810 c3 -5 8 -10 11 -10 2 0 4 5 4 10 0 6 -5 10 -11 10 -5 0
-7 -4 -4 -10z"/>
<path d="M2123 1804 c-3 -8 -1 -20 5 -26 7 -7 10 -2 9 16 -2 30 -5 32 -14 10z"/>
<path d="M2190 1772 c0 -11 5 -24 10 -27 6 -4 9 2 7 14 -4 29 -17 39 -17 13z"/>
<path d="M1523 1703 c-15 -5 -17 -23 -4 -23 5 0 11 7 15 15 3 8 4 15 3 14 -1
0 -8 -3 -14 -6z"/>
<path d="M1820 1706 c0 -2 7 -6 15 -10 8 -3 15 -1 15 4 0 6 -7 10 -15 10 -8 0
-15 -2 -15 -4z"/>
<path d="M2155 1700 c-3 -5 -1 -10 4 -10 6 0 11 5 11 10 0 6 -2 10 -4 10 -3 0
-8 -4 -11 -10z"/>
<path d="M1400 1671 c0 -5 5 -13 10 -16 6 -3 10 -2 10 4 0 5 -4 13 -10 16 -5
3 -10 2 -10 -4z"/>
<path d="M1540 1656 c0 -2 8 -10 18 -17 15 -13 16 -12 3 4 -13 16 -21 21 -21
13z"/>
<path d="M2050 1649 c0 -5 5 -7 10 -4 6 3 10 8 10 11 0 2 -4 4 -10 4 -5 0 -10
-5 -10 -11z"/>
<path d="M1316 1615 c4 -8 8 -15 10 -15 2 0 4 7 4 15 0 8 -4 15 -10 15 -5 0
-7 -7 -4 -15z"/>
<path d="M1600 1596 c0 -2 8 -10 18 -17 15 -13 16 -12 3 4 -13 16 -21 21 -21
13z"/>
<path d="M1800 1590 c-13 -8 -12 -10 3 -10 9 0 17 5 17 10 0 12 -1 12 -20 0z"/>
<path d="M2140 1551 c0 -6 5 -13 10 -16 6 -3 10 1 10 9 0 9 -4 16 -10 16 -5 0
-10 -4 -10 -9z"/>
<path d="M1653 1535 c0 -8 3 -13 5 -10 3 3 12 -1 21 -7 10 -8 9 -4 -3 10 -23
26 -23 26 -23 7z"/>
<path d="M2055 1540 c-3 -5 -1 -10 4 -10 6 0 11 5 11 10 0 6 -2 10 -4 10 -3 0
-8 -4 -11 -10z"/>
<path d="M1915 1481 c-3 -5 -1 -12 5 -16 5 -3 10 1 10 9 0 18 -6 21 -15 7z"/>
<path d="M1370 1466 c0 -2 7 -9 15 -16 9 -7 15 -8 15 -2 0 5 -7 12 -15 16 -8
3 -15 4 -15 2z"/>
<path d="M1545 1432 c2 -12 9 -30 15 -39 8 -15 9 -12 4 12 -8 34 -26 60 -19
27z"/>
<path d="M1649 1393 c-13 -16 -12 -17 4 -4 16 13 21 21 13 21 -2 0 -10 -8 -17
-17z"/>
<path d="M1320 1381 c0 -5 5 -13 10 -16 6 -3 10 -2 10 4 0 5 -4 13 -10 16 -5
3 -10 2 -10 -4z"/>
<path d="M1760 1374 c0 -8 5 -12 10 -9 6 4 8 11 5 16 -9 14 -15 11 -15 -7z"/>
<path d="M1970 1339 c0 -5 5 -7 10 -4 6 3 10 8 10 11 0 2 -4 4 -10 4 -5 0 -10
-5 -10 -11z"/>
<path d="M1300 1305 c7 -9 15 -13 17 -11 7 7 -7 26 -19 26 -6 0 -6 -6 2 -15z"/>
<path d="M1590 1315 c0 -5 5 -17 10 -25 5 -8 10 -10 10 -5 0 6 -5 17 -10 25
-5 8 -10 11 -10 5z"/>
<path d="M1430 1296 c0 -2 7 -6 15 -10 8 -3 15 -1 15 4 0 6 -7 10 -15 10 -8 0
-15 -2 -15 -4z"/>
<path d="M1615 1260 c3 -5 8 -10 11 -10 2 0 4 5 4 10 0 6 -5 10 -11 10 -5 0
-7 -4 -4 -10z"/>
<path d="M1785 1220 c-3 -5 -1 -10 4 -10 6 0 11 5 11 10 0 6 -2 10 -4 10 -3 0
-8 -4 -11 -10z"/>
<path d="M1370 1191 c0 -5 5 -13 10 -16 6 -3 10 -2 10 4 0 5 -4 13 -10 16 -5
3 -10 2 -10 -4z"/>
<path d="M1255 1140 c-3 -5 -1 -10 4 -10 6 0 11 5 11 10 0 6 -2 10 -4 10 -3 0
-8 -4 -11 -10z"/>
<path d="M1450 1110 c0 -5 5 -10 11 -10 5 0 7 5 4 10 -3 6 -8 10 -11 10 -2 0
-4 -4 -4 -10z"/>
<path d="M1575 1110 c3 -5 8 -10 11 -10 2 0 4 5 4 10 0 6 -5 10 -11 10 -5 0
-7 -4 -4 -10z"/>
<path d="M785 1080 c-19 -8 -19 -9 3 -9 12 -1 22 4 22 9 0 6 -1 10 -2 9 -2 0
-12 -4 -23 -9z"/>
<path d="M1175 1080 c3 -5 8 -10 11 -10 2 0 4 5 4 10 0 6 -5 10 -11 10 -5 0
-7 -4 -4 -10z"/>
<path d="M1058 1053 c7 -3 16 -2 19 1 4 3 -2 6 -13 5 -11 0 -14 -3 -6 -6z"/>
<path d="M620 1039 c0 -5 5 -7 10 -4 6 3 10 8 10 11 0 2 -4 4 -10 4 -5 0 -10
-5 -10 -11z"/>
<path d="M870 1006 c0 -2 8 -10 18 -17 15 -13 16 -12 3 4 -13 16 -21 21 -21
13z"/>
<path d="M1340 990 c0 -5 5 -10 10 -10 6 0 10 5 10 10 0 6 -4 10 -10 10 -5 0
-10 -4 -10 -10z"/>
<path d="M1110 940 c0 -5 7 -10 16 -10 8 0 12 5 9 10 -3 6 -10 10 -16 10 -5 0
-9 -4 -9 -10z"/>
<path d="M1309 933 c-13 -16 -12 -17 4 -4 16 13 21 21 13 21 -2 0 -10 -8 -17
-17z"/>
<path d="M768 923 c6 -2 18 -2 25 0 6 3 1 5 -13 5 -14 0 -19 -2 -12 -5z"/>
<path d="M640 891 c0 -5 7 -12 16 -15 14 -5 15 -4 4 9 -14 17 -20 19 -20 6z"/>
<path d="M1265 880 c-3 -5 -1 -10 4 -10 6 0 11 5 11 10 0 6 -2 10 -4 10 -3 0
-8 -4 -11 -10z"/>
<path d="M520 876 c0 -2 8 -10 18 -17 15 -13 16 -12 3 4 -13 16 -21 21 -21 13z"/>
<path d="M987 849 c7 -7 15 -10 18 -7 3 3 -2 9 -12 12 -14 6 -15 5 -6 -5z"/>
<path d="M486 832 c-3 -5 1 -9 9 -9 8 0 12 4 9 9 -3 4 -7 8 -9 8 -2 0 -6 -4
-9 -8z"/>
<path d="M605 780 c3 -5 11 -10 16 -10 6 0 7 5 4 10 -3 6 -11 10 -16 10 -6 0
-7 -4 -4 -10z"/>
<path d="M800 751 c0 -5 7 -11 15 -15 8 -3 15 -1 15 3 0 5 -7 11 -15 15 -8 3
-15 1 -15 -3z"/>
<path d="M970 746 c0 -2 7 -7 16 -10 8 -3 12 -2 9 4 -6 10 -25 14 -25 6z"/>
<path d="M1117 733 c-4 -6 0 -13 8 -17 8 -3 17 0 21 6 4 6 3 8 -4 4 -5 -3 -12
-1 -14 6 -3 8 -6 9 -11 1z"/>
<path d="M570 706 c0 -4 7 -14 15 -22 8 -9 15 -11 15 -6 0 5 -7 15 -15 22 -8
7 -15 9 -15 6z"/>
<path d="M430 686 c0 -7 9 -16 20 -19 11 -3 20 -2 20 2 0 3 -9 12 -20 19 -16
10 -20 10 -20 -2z"/>
<path d="M670 655 c0 -2 10 -10 23 -16 20 -11 21 -11 8 4 -13 16 -31 23 -31
12z"/>
<path d="M470 646 c0 -2 8 -10 18 -17 15 -13 16 -12 3 4 -13 16 -21 21 -21 13z"/>
<path d="M1028 643 c7 -3 16 -2 19 1 4 3 -2 6 -13 5 -11 0 -14 -3 -6 -6z"/>
<path d="M620 603 c0 -6 8 -17 18 -24 16 -13 16 -13 2 6 -8 11 -16 22 -17 24
-2 2 -3 0 -3 -6z"/>
<path d="M532 570 c7 -11 17 -20 22 -20 5 0 1 9 -9 20 -10 11 -20 20 -22 20
-2 0 2 -9 9 -20z"/>
<path d="M280 560 c0 -5 5 -10 11 -10 5 0 7 5 4 10 -3 6 -8 10 -11 10 -2 0 -4
-4 -4 -10z"/>
<path d="M708 508 c5 -5 16 -8 23 -6 8 3 3 7 -10 11 -17 4 -21 3 -13 -5z"/>
<path d="M498 448 c6 -6 18 -8 28 -6 14 3 12 5 -9 10 -19 3 -25 2 -19 -4z"/>
<path d="M325 410 c3 -5 13 -10 21 -10 8 0 12 5 9 10 -3 6 -13 10 -21 10 -8 0
-12 -4 -9 -10z"/>
<path d="M1011 1434 c0 -11 3 -14 6 -6 3 7 2 16 -1 19 -3 4 -6 -2 -5 -13z"/>
<path d="M860 1365 c-7 -9 -10 -18 -7 -21 3 -3 10 4 17 15 13 25 8 27 -10 6z"/>
<path d="M1236 372 c-2 -4 11 -6 30 -4 19 2 34 6 34 8 0 8 -59 4 -64 -4z"/>
<path d="M1173 363 c9 -2 25 -2 35 0 9 3 1 5 -18 5 -19 0 -27 -2 -17 -5z"/>
<path d="M1818 533 c6 -2 18 -2 25 0 6 3 1 5 -13 5 -14 0 -19 -2 -12 -5z"/>
<path d="M705 384 c39 -7 84 -13 100 -12 17 0 -4 6 -45 13 -41 8 -86 13 -100
13 -14 0 7 -6 45 -14z"/>
<path d="M878 363 c12 -2 30 -2 40 0 9 3 -1 5 -23 4 -22 0 -30 -2 -17 -4z"/>
</g>
</svg>
